<svg width="630" height="32" viewBox="0 0 630 32" fill="none" xmlns="http://www.w3.org/2000/svg">
<path d="M0.267756 28.1052V15.0143H5.27912C6.22514 15.0143 7.01136 15.1635 7.63778 15.4618C8.26847 15.7558 8.73935 16.1585 9.05043 16.6699C9.36577 17.1812 9.52344 17.7608 9.52344 18.4085C9.52344 18.9412 9.42116 19.3971 9.21662 19.7764C9.01207 20.1514 8.73722 20.4561 8.39205 20.6905C8.04688 20.9248 7.66122 21.0932 7.23509 21.1954V21.3233C7.69957 21.3488 8.14489 21.4916 8.57102 21.7515C9.00142 22.0072 9.35298 22.3694 9.62571 22.8382C9.89844 23.3069 10.0348 23.8737 10.0348 24.5385C10.0348 25.216 9.87074 25.8254 9.54261 26.3666C9.21449 26.9035 8.72017 27.3275 8.05966 27.6386C7.39915 27.9497 6.56818 28.1052 5.56676 28.1052H0.267756ZM2.6392 26.1237H5.18963C6.05043 26.1237 6.67045 25.9596 7.04972 25.6315C7.43324 25.2991 7.625 24.873 7.625 24.3531C7.625 23.9653 7.52912 23.6159 7.33736 23.3048C7.1456 22.9895 6.87287 22.7423 6.51918 22.5633C6.16548 22.3801 5.74361 22.2885 5.25355 22.2885H2.6392V26.1237ZM2.6392 20.5818H4.98509C5.39418 20.5818 5.76278 20.5072 6.09091 20.3581C6.41903 20.2047 6.67685 19.9895 6.86435 19.7125C7.05611 19.4312 7.15199 19.0988 7.15199 18.7153C7.15199 18.2082 6.97301 17.7906 6.61506 17.4625C6.26136 17.1343 5.73509 16.9703 5.03622 16.9703H2.6392V20.5818ZM18.2534 23.976V18.287H20.5673V28.1052H18.3237V26.3602H18.2214C17.9998 26.9099 17.6355 27.3595 17.1284 27.7089C16.6255 28.0583 16.0055 28.2331 15.2683 28.2331C14.6248 28.2331 14.0559 28.0903 13.5616 27.8048C13.0716 27.515 12.688 27.0953 12.411 26.5456C12.1341 25.9916 11.9956 25.3226 11.9956 24.5385V18.287H14.3095V24.1805C14.3095 24.8027 14.4799 25.297 14.8208 25.6635C15.1618 26.0299 15.6092 26.2132 16.1632 26.2132C16.5041 26.2132 16.8343 26.1301 17.1539 25.9639C17.4735 25.7977 17.7356 25.5505 17.9402 25.2224C18.149 24.89 18.2534 24.4745 18.2534 23.976ZM22.9467 28.1052V18.287H25.2607V28.1052H22.9467ZM24.1101 16.8936C23.7436 16.8936 23.4283 16.7721 23.1641 16.5292C22.8999 16.2821 22.7678 15.9859 22.7678 15.6407C22.7678 15.2913 22.8999 14.9951 23.1641 14.7522C23.4283 14.5051 23.7436 14.3815 24.1101 14.3815C24.4808 14.3815 24.7962 14.5051 25.0561 14.7522C25.3203 14.9951 25.4524 15.2913 25.4524 15.6407C25.4524 15.9859 25.3203 16.2821 25.0561 16.5292C24.7962 16.7721 24.4808 16.8936 24.1101 16.8936ZM29.954 15.0143V28.1052H27.6401V15.0143H29.954ZM37.2362 18.287V20.0768H31.592V18.287H37.2362ZM32.9854 15.9348H35.2994V25.1521C35.2994 25.4632 35.3462 25.7018 35.44 25.868C35.538 26.0299 35.6658 26.1407 35.8235 26.2004C35.9812 26.2601 36.1559 26.2899 36.3477 26.2899C36.4925 26.2899 36.6246 26.2792 36.744 26.2579C36.8675 26.2366 36.9613 26.2174 37.0252 26.2004L37.4151 28.0093C37.2915 28.052 37.1147 28.0988 36.8846 28.15C36.6587 28.2011 36.3817 28.2309 36.0536 28.2395C35.4741 28.2565 34.9521 28.1691 34.4876 27.9774C34.0231 27.7814 33.6545 27.4788 33.3817 27.0697C33.1133 26.6606 32.9812 26.1493 32.9854 25.5356V15.9348ZM48.6092 18.287V20.0768H42.8052V18.287H48.6092ZM44.2562 28.1052V17.3602C44.2562 16.6997 44.3926 16.15 44.6653 15.711C44.9423 15.2721 45.313 14.944 45.7775 14.7267C46.242 14.5093 46.7576 14.4007 47.3244 14.4007C47.725 14.4007 48.0808 14.4326 48.3919 14.4966C48.7029 14.5605 48.9331 14.618 49.0822 14.6691L48.622 16.4589C48.524 16.4291 48.4004 16.3993 48.2512 16.3694C48.1021 16.3353 47.9359 16.3183 47.7527 16.3183C47.3223 16.3183 47.0176 16.4227 46.8386 16.6315C46.6639 16.836 46.5765 17.1301 46.5765 17.5136V28.1052H44.2562ZM54.3349 28.297C53.3761 28.297 52.5451 28.086 51.842 27.6642C51.1388 27.2423 50.5934 26.6521 50.2056 25.8936C49.8221 25.1351 49.6303 24.2487 49.6303 23.2345C49.6303 22.2203 49.8221 21.3318 50.2056 20.569C50.5934 19.8062 51.1388 19.2139 51.842 18.792C52.5451 18.3701 53.3761 18.1592 54.3349 18.1592C55.2937 18.1592 56.1246 18.3701 56.8278 18.792C57.5309 19.2139 58.0742 19.8062 58.4577 20.569C58.8455 21.3318 59.0394 22.2203 59.0394 23.2345C59.0394 24.2487 58.8455 25.1351 58.4577 25.8936C58.0742 26.6521 57.5309 27.2423 56.8278 27.6642C56.1246 28.086 55.2937 28.297 54.3349 28.297ZM54.3477 26.4433C54.8675 26.4433 55.3022 26.3005 55.6516 26.015C56.0011 25.7253 56.261 25.3375 56.4315 24.8517C56.6062 24.3659 56.6935 23.8247 56.6935 23.2281C56.6935 22.6272 56.6062 22.0839 56.4315 21.5981C56.261 21.1081 56.0011 20.7182 55.6516 20.4284C55.3022 20.1386 54.8675 19.9937 54.3477 19.9937C53.815 19.9937 53.3718 20.1386 53.0181 20.4284C52.6687 20.7182 52.4066 21.1081 52.2319 21.5981C52.0614 22.0839 51.9762 22.6272 51.9762 23.2281C51.9762 23.8247 52.0614 24.3659 52.2319 24.8517C52.4066 25.3375 52.6687 25.7253 53.0181 26.015C53.3718 26.3005 53.815 26.4433 54.3477 26.4433ZM61.0034 28.1052V18.287H63.247V19.9234H63.3493C63.5282 19.3566 63.835 18.9199 64.2697 18.613C64.7086 18.302 65.2093 18.1464 65.7718 18.1464C65.8997 18.1464 66.0424 18.1528 66.2001 18.1656C66.362 18.1741 66.4963 18.189 66.6028 18.2103V20.3389C66.5048 20.3048 66.3493 20.275 66.1362 20.2494C65.9274 20.2196 65.725 20.2047 65.5289 20.2047C65.1071 20.2047 64.7278 20.2963 64.3912 20.4795C64.0588 20.6585 63.7967 20.9078 63.6049 21.2274C63.4132 21.547 63.3173 21.9156 63.3173 22.3332V28.1052H61.0034ZM75.4302 28.3034C74.8081 28.3034 74.2477 28.1926 73.7491 27.971C73.2548 27.7451 72.8627 27.4128 72.573 26.9738C72.2875 26.5349 72.1447 25.9937 72.1447 25.3503C72.1447 24.7963 72.247 24.3382 72.4515 23.976C72.6561 23.6137 72.9352 23.324 73.2889 23.1066C73.6426 22.8893 74.041 22.7253 74.4842 22.6145C74.9316 22.4994 75.394 22.4163 75.8713 22.3652C76.4466 22.3055 76.9132 22.2522 77.2711 22.2054C77.6291 22.1542 77.889 22.0775 78.051 21.9753C78.2172 21.8687 78.3002 21.7047 78.3002 21.4831V21.4447C78.3002 20.9632 78.1575 20.5903 77.872 20.3261C77.5865 20.0619 77.1752 19.9298 76.6383 19.9298C76.0716 19.9298 75.622 20.0534 75.2896 20.3005C74.9615 20.5477 74.7399 20.8396 74.6248 21.1762L72.4643 20.8694C72.6348 20.2728 72.916 19.7743 73.3081 19.3737C73.7001 18.9689 74.1795 18.6663 74.7463 18.466C75.313 18.2615 75.9395 18.1592 76.6255 18.1592C77.0985 18.1592 77.5694 18.2146 78.0382 18.3254C78.5069 18.4362 78.9352 18.6194 79.323 18.8751C79.7108 19.1265 80.0218 19.4696 80.2562 19.9042C80.4949 20.3389 80.6142 20.8822 80.6142 21.5342V28.1052H78.3897V26.7565H78.313C78.1724 27.0292 77.9743 27.2849 77.7186 27.5235C77.4672 27.7579 77.1497 27.9476 76.7662 28.0924C76.3869 28.2331 75.9416 28.3034 75.4302 28.3034ZM76.0311 26.6031C76.4956 26.6031 76.8983 26.5115 77.2392 26.3282C77.5801 26.1407 77.8422 25.8936 78.0254 25.5868C78.2129 25.2799 78.3066 24.9454 78.3066 24.5832V23.4262C78.2342 23.4859 78.1106 23.5413 77.9359 23.5924C77.7654 23.6436 77.5737 23.6883 77.3606 23.7267C77.1475 23.765 76.9366 23.7991 76.7278 23.8289C76.519 23.8588 76.3379 23.8843 76.1845 23.9057C75.8393 23.9525 75.5304 24.0292 75.2576 24.1358C74.9849 24.2423 74.7697 24.3914 74.612 24.5832C74.4544 24.7707 74.3755 25.0136 74.3755 25.3119C74.3755 25.738 74.5311 26.0598 74.8422 26.2771C75.1532 26.4944 75.5495 26.6031 76.0311 26.6031ZM85.2548 22.3524V28.1052H82.9409V18.287H85.1525V19.9554H85.2676C85.4934 19.4057 85.8535 18.9689 86.3478 18.645C86.8464 18.3211 87.4622 18.1592 88.1951 18.1592C88.8727 18.1592 89.4629 18.3041 89.9657 18.5939C90.4728 18.8836 90.8649 19.3034 91.1419 19.8531C91.4231 20.4028 91.5616 21.0697 91.5574 21.8538V28.1052H89.2434V22.2118C89.2434 21.5555 89.073 21.042 88.7321 20.6713C88.3954 20.3005 87.9288 20.1152 87.3322 20.1152C86.9274 20.1152 86.5673 20.2047 86.252 20.3836C85.9409 20.5583 85.6958 20.8119 85.5169 21.1443C85.3422 21.4767 85.2548 21.8794 85.2548 22.3524ZM94.9963 31.787C94.6809 31.787 94.389 31.7615 94.1206 31.7103C93.8564 31.6635 93.6454 31.6081 93.4877 31.5441L94.0247 29.7416C94.3613 29.8396 94.6618 29.8865 94.926 29.8822C95.1902 29.878 95.4224 29.7949 95.6227 29.6329C95.8272 29.4753 95.9998 29.211 96.1404 28.8403L96.3386 28.3098L92.7782 18.287H95.2328L97.4956 25.7018H97.5978L99.867 18.287H102.328L98.3968 29.2941C98.2136 29.814 97.9707 30.2593 97.6681 30.6301C97.3656 31.0051 96.9949 31.2906 96.5559 31.4866C96.1213 31.6869 95.6014 31.787 94.9963 31.787ZM107.878 28.297C106.919 28.297 106.088 28.086 105.385 27.6642C104.682 27.2423 104.136 26.6521 103.749 25.8936C103.365 25.1351 103.173 24.2487 103.173 23.2345C103.173 22.2203 103.365 21.3318 103.749 20.569C104.136 19.8062 104.682 19.2139 105.385 18.792C106.088 18.3701 106.919 18.1592 107.878 18.1592C108.837 18.1592 109.668 18.3701 110.371 18.792C111.074 19.2139 111.617 19.8062 112.001 20.569C112.388 21.3318 112.582 22.2203 112.582 23.2345C112.582 24.2487 112.388 25.1351 112.001 25.8936C111.617 26.6521 111.074 27.2423 110.371 27.6642C109.668 28.086 108.837 28.297 107.878 28.297ZM107.891 26.4433C108.411 26.4433 108.845 26.3005 109.195 26.015C109.544 25.7253 109.804 25.3375 109.974 24.8517C110.149 24.3659 110.237 23.8247 110.237 23.2281C110.237 22.6272 110.149 22.0839 109.974 21.5981C109.804 21.1081 109.544 20.7182 109.195 20.4284C108.845 20.1386 108.411 19.9937 107.891 19.9937C107.358 19.9937 106.915 20.1386 106.561 20.4284C106.212 20.7182 105.95 21.1081 105.775 21.5981C105.604 22.0839 105.519 22.6272 105.519 23.2281C105.519 23.8247 105.604 24.3659 105.775 24.8517C105.95 25.3375 106.212 25.7253 106.561 26.015C106.915 26.3005 107.358 26.4433 107.891 26.4433ZM116.86 22.3524V28.1052H114.546V18.287H116.758V19.9554H116.873C117.099 19.4057 117.459 18.9689 117.953 18.645C118.452 18.3211 119.068 18.1592 119.801 18.1592C120.478 18.1592 121.068 18.3041 121.571 18.5939C122.078 18.8836 122.47 19.3034 122.747 19.8531C123.029 20.4028 123.167 21.0697 123.163 21.8538V28.1052H120.849V22.2118C120.849 21.5555 120.678 21.042 120.338 20.6713C120.001 20.3005 119.534 20.1152 118.938 20.1152C118.533 20.1152 118.173 20.2047 117.857 20.3836C117.546 20.5583 117.301 20.8119 117.122 21.1443C116.948 21.4767 116.86 21.8794 116.86 22.3524ZM129.862 28.297C128.877 28.297 128.027 28.0924 127.311 27.6833C126.6 27.27 126.052 26.6862 125.669 25.9319C125.285 25.1734 125.093 24.2807 125.093 23.2537C125.093 22.2437 125.285 21.3574 125.669 20.5946C126.056 19.8275 126.597 19.2309 127.292 18.8048C127.987 18.3744 128.803 18.1592 129.74 18.1592C130.345 18.1592 130.916 18.2572 131.453 18.4532C131.994 18.645 132.472 18.9433 132.885 19.3481C133.303 19.753 133.631 20.2686 133.869 20.895C134.108 21.5172 134.227 22.2586 134.227 23.1194V23.8289H126.18V22.2693H132.009C132.005 21.8261 131.909 21.4319 131.722 21.0868C131.534 20.7373 131.272 20.4625 130.936 20.2622C130.603 20.0619 130.215 19.9618 129.772 19.9618C129.299 19.9618 128.884 20.0768 128.526 20.3069C128.168 20.5328 127.889 20.8311 127.688 21.2018C127.492 21.5683 127.392 21.971 127.388 22.4099V23.7714C127.388 24.3424 127.492 24.8325 127.701 25.2416C127.91 25.6464 128.202 25.9575 128.577 26.1748C128.952 26.3879 129.391 26.4944 129.894 26.4944C130.23 26.4944 130.535 26.4476 130.808 26.3538C131.08 26.2558 131.317 26.113 131.517 25.9255C131.718 25.738 131.869 25.5058 131.971 25.2288L134.132 25.4717C133.995 26.0427 133.735 26.5413 133.352 26.9674C132.972 27.3893 132.487 27.7174 131.894 27.9518C131.302 28.1819 130.624 28.297 129.862 28.297ZM140.65 28.1052V18.287H142.893V19.9234H142.996C143.175 19.3566 143.482 18.9199 143.916 18.613C144.355 18.302 144.856 18.1464 145.418 18.1464C145.546 18.1464 145.689 18.1528 145.847 18.1656C146.009 18.1741 146.143 18.189 146.249 18.2103V20.3389C146.151 20.3048 145.996 20.275 145.783 20.2494C145.574 20.2196 145.371 20.2047 145.175 20.2047C144.754 20.2047 144.374 20.2963 144.038 20.4795C143.705 20.6585 143.443 20.9078 143.251 21.2274C143.06 21.547 142.964 21.9156 142.964 22.3332V28.1052H140.65ZM151.729 28.297C150.744 28.297 149.894 28.0924 149.178 27.6833C148.467 27.27 147.919 26.6862 147.536 25.9319C147.152 25.1734 146.96 24.2807 146.96 23.2537C146.96 22.2437 147.152 21.3574 147.536 20.5946C147.923 19.8275 148.465 19.2309 149.159 18.8048C149.854 18.3744 150.67 18.1592 151.607 18.1592C152.213 18.1592 152.784 18.2572 153.32 18.4532C153.862 18.645 154.339 18.9433 154.752 19.3481C155.17 19.753 155.498 20.2686 155.737 20.895C155.975 21.5172 156.095 22.2586 156.095 23.1194V23.8289H148.047V22.2693H153.877C153.872 21.8261 153.776 21.4319 153.589 21.0868C153.401 20.7373 153.139 20.4625 152.803 20.2622C152.47 20.0619 152.083 19.9618 151.639 19.9618C151.166 19.9618 150.751 20.0768 150.393 20.3069C150.035 20.5328 149.756 20.8311 149.556 21.2018C149.36 21.5683 149.259 21.971 149.255 22.4099V23.7714C149.255 24.3424 149.36 24.8325 149.568 25.2416C149.777 25.6464 150.069 25.9575 150.444 26.1748C150.819 26.3879 151.258 26.4944 151.761 26.4944C152.097 26.4944 152.402 26.4476 152.675 26.3538C152.948 26.2558 153.184 26.113 153.384 25.9255C153.585 25.738 153.736 25.5058 153.838 25.2288L155.999 25.4717C155.862 26.0427 155.602 26.5413 155.219 26.9674C154.84 27.3893 154.354 27.7174 153.762 27.9518C153.169 28.1819 152.492 28.297 151.729 28.297ZM160.877 28.3034C160.255 28.3034 159.695 28.1926 159.196 27.971C158.702 27.7451 158.31 27.4128 158.02 26.9738C157.735 26.5349 157.592 25.9937 157.592 25.3503C157.592 24.7963 157.694 24.3382 157.899 23.976C158.103 23.6137 158.382 23.324 158.736 23.1066C159.09 22.8893 159.488 22.7253 159.931 22.6145C160.379 22.4994 160.841 22.4163 161.319 22.3652C161.894 22.3055 162.36 22.2522 162.718 22.2054C163.076 22.1542 163.336 22.0775 163.498 21.9753C163.664 21.8687 163.748 21.7047 163.748 21.4831V21.4447C163.748 20.9632 163.605 20.5903 163.319 20.3261C163.034 20.0619 162.623 19.9298 162.086 19.9298C161.519 19.9298 161.069 20.0534 160.737 20.3005C160.409 20.5477 160.187 20.8396 160.072 21.1762L157.912 20.8694C158.082 20.2728 158.363 19.7743 158.755 19.3737C159.147 18.9689 159.627 18.6663 160.194 18.466C160.76 18.2615 161.387 18.1592 162.073 18.1592C162.546 18.1592 163.017 18.2146 163.485 18.3254C163.954 18.4362 164.382 18.6194 164.77 18.8751C165.158 19.1265 165.469 19.4696 165.703 19.9042C165.942 20.3389 166.061 20.8822 166.061 21.5342V28.1052H163.837V26.7565H163.76C163.62 27.0292 163.422 27.2849 163.166 27.5235C162.914 27.7579 162.597 27.9476 162.213 28.0924C161.834 28.2331 161.389 28.3034 160.877 28.3034ZM161.478 26.6031C161.943 26.6031 162.346 26.5115 162.686 26.3282C163.027 26.1407 163.289 25.8936 163.473 25.5868C163.66 25.2799 163.754 24.9454 163.754 24.5832V23.4262C163.681 23.4859 163.558 23.5413 163.383 23.5924C163.213 23.6436 163.021 23.6883 162.808 23.7267C162.595 23.765 162.384 23.7991 162.175 23.8289C161.966 23.8588 161.785 23.8843 161.632 23.9057C161.287 23.9525 160.978 24.0292 160.705 24.1358C160.432 24.2423 160.217 24.3914 160.059 24.5832C159.902 24.7707 159.823 25.0136 159.823 25.3119C159.823 25.738 159.978 26.0598 160.289 26.2771C160.6 26.4944 160.997 26.6031 161.478 26.6031ZM172.032 28.2778C171.26 28.2778 170.57 28.0797 169.961 27.6833C169.351 27.287 168.87 26.7118 168.516 25.9575C168.162 25.2032 167.985 24.287 167.985 23.2089C167.985 22.118 168.164 21.1976 168.522 20.4476C168.885 19.6933 169.373 19.1244 169.986 18.7409C170.6 18.3531 171.284 18.1592 172.038 18.1592C172.613 18.1592 173.086 18.2572 173.457 18.4532C173.828 18.645 174.122 18.8772 174.339 19.15C174.556 19.4184 174.725 19.672 174.844 19.9106H174.94V15.0143H177.26V28.1052H174.985V26.5583H174.844C174.725 26.797 174.552 27.0505 174.326 27.319C174.1 27.5832 173.802 27.8091 173.431 27.9966C173.061 28.1841 172.594 28.2778 172.032 28.2778ZM172.677 26.3794C173.167 26.3794 173.585 26.2473 173.93 25.9831C174.275 25.7146 174.537 25.3417 174.716 24.8645C174.895 24.3872 174.985 23.8311 174.985 23.1961C174.985 22.5612 174.895 22.0093 174.716 21.5406C174.542 21.0718 174.282 20.7075 173.936 20.4476C173.596 20.1876 173.176 20.0576 172.677 20.0576C172.162 20.0576 171.731 20.1919 171.386 20.4603C171.041 20.7288 170.781 21.0995 170.606 21.5726C170.431 22.0456 170.344 22.5868 170.344 23.1961C170.344 23.8098 170.431 24.3574 170.606 24.8389C170.785 25.3162 171.047 25.6933 171.392 25.9703C171.742 26.243 172.17 26.3794 172.677 26.3794ZM181.164 31.787C180.849 31.787 180.557 31.7615 180.289 31.7103C180.024 31.6635 179.813 31.6081 179.656 31.5441L180.193 29.7416C180.529 29.8396 180.83 29.8865 181.094 29.8822C181.358 29.878 181.59 29.7949 181.791 29.6329C181.995 29.4753 182.168 29.211 182.308 28.8403L182.507 28.3098L178.946 18.287H181.401L183.664 25.7018H183.766L186.035 18.287H188.496L184.565 29.2941C184.382 29.814 184.139 30.2593 183.836 30.6301C183.534 31.0051 183.163 31.2906 182.724 31.4866C182.289 31.6869 181.769 31.787 181.164 31.787ZM199.465 18.287V20.0768H193.82V18.287H199.465ZM195.214 15.9348H197.528V25.1521C197.528 25.4632 197.575 25.7018 197.669 25.868C197.767 26.0299 197.894 26.1407 198.052 26.2004C198.21 26.2601 198.384 26.2899 198.576 26.2899C198.721 26.2899 198.853 26.2792 198.972 26.2579C199.096 26.2366 199.19 26.2174 199.254 26.2004L199.644 28.0093C199.52 28.052 199.343 28.0988 199.113 28.15C198.887 28.2011 198.61 28.2309 198.282 28.2395C197.703 28.2565 197.181 28.1691 196.716 27.9774C196.252 27.7814 195.883 27.4788 195.61 27.0697C195.342 26.6606 195.21 26.1493 195.214 25.5356V15.9348ZM205.577 28.297C204.618 28.297 203.787 28.086 203.084 27.6642C202.381 27.2423 201.836 26.6521 201.448 25.8936C201.064 25.1351 200.873 24.2487 200.873 23.2345C200.873 22.2203 201.064 21.3318 201.448 20.569C201.836 19.8062 202.381 19.2139 203.084 18.792C203.787 18.3701 204.618 18.1592 205.577 18.1592C206.536 18.1592 207.367 18.3701 208.07 18.792C208.773 19.2139 209.316 19.8062 209.7 20.569C210.088 21.3318 210.282 22.2203 210.282 23.2345C210.282 24.2487 210.088 25.1351 209.7 25.8936C209.316 26.6521 208.773 27.2423 208.07 27.6642C207.367 28.086 206.536 28.297 205.577 28.297ZM205.59 26.4433C206.11 26.4433 206.544 26.3005 206.894 26.015C207.243 25.7253 207.503 25.3375 207.674 24.8517C207.848 24.3659 207.936 23.8247 207.936 23.2281C207.936 22.6272 207.848 22.0839 207.674 21.5981C207.503 21.1081 207.243 20.7182 206.894 20.4284C206.544 20.1386 206.11 19.9937 205.59 19.9937C205.057 19.9937 204.614 20.1386 204.26 20.4284C203.911 20.7182 203.649 21.1081 203.474 21.5981C203.304 22.0839 203.218 22.6272 203.218 23.2281C203.218 23.8247 203.304 24.3659 203.474 24.8517C203.649 25.3375 203.911 25.7253 204.26 26.015C204.614 26.3005 205.057 26.4433 205.59 26.4433ZM216.71 28.1052V18.287H218.922V19.9554H219.037C219.242 19.3929 219.58 18.9539 220.053 18.6386C220.526 18.319 221.091 18.1592 221.747 18.1592C222.412 18.1592 222.972 18.3211 223.428 18.645C223.889 18.9646 224.213 19.4014 224.4 19.9554H224.502C224.72 19.4099 225.086 18.9753 225.602 18.6514C226.122 18.3233 226.737 18.1592 227.449 18.1592C228.352 18.1592 229.09 18.4447 229.661 19.0157C230.232 19.5868 230.517 20.4199 230.517 21.515V28.1052H228.197V21.873C228.197 21.2636 228.035 20.8183 227.711 20.537C227.387 20.2515 226.991 20.1088 226.522 20.1088C225.964 20.1088 225.527 20.2835 225.212 20.6329C224.901 20.9781 224.745 21.4277 224.745 21.9816V28.1052H222.476V21.7771C222.476 21.27 222.323 20.8652 222.016 20.5626C221.713 20.2601 221.317 20.1088 220.827 20.1088C220.494 20.1088 220.192 20.194 219.919 20.3645C219.646 20.5307 219.429 20.7672 219.267 21.074C219.105 21.3765 219.024 21.7302 219.024 22.1351V28.1052H216.71ZM235.69 28.3034C235.068 28.3034 234.507 28.1926 234.009 27.971C233.515 27.7451 233.123 27.4128 232.833 26.9738C232.547 26.5349 232.404 25.9937 232.404 25.3503C232.404 24.7963 232.507 24.3382 232.711 23.976C232.916 23.6137 233.195 23.324 233.549 23.1066C233.902 22.8893 234.301 22.7253 234.744 22.6145C235.191 22.4994 235.654 22.4163 236.131 22.3652C236.706 22.3055 237.173 22.2522 237.531 22.2054C237.889 22.1542 238.149 22.0775 238.311 21.9753C238.477 21.8687 238.56 21.7047 238.56 21.4831V21.4447C238.56 20.9632 238.417 20.5903 238.132 20.3261C237.846 20.0619 237.435 19.9298 236.898 19.9298C236.331 19.9298 235.882 20.0534 235.549 20.3005C235.221 20.5477 235 20.8396 234.885 21.1762L232.724 20.8694C232.895 20.2728 233.176 19.7743 233.568 19.3737C233.96 18.9689 234.439 18.6663 235.006 18.466C235.573 18.2615 236.199 18.1592 236.885 18.1592C237.358 18.1592 237.829 18.2146 238.298 18.3254C238.767 18.4362 239.195 18.6194 239.583 18.8751C239.971 19.1265 240.282 19.4696 240.516 19.9042C240.755 20.3389 240.874 20.8822 240.874 21.5342V28.1052H238.65V26.7565H238.573C238.432 27.0292 238.234 27.2849 237.978 27.5235C237.727 27.7579 237.409 27.9476 237.026 28.0924C236.647 28.2331 236.201 28.3034 235.69 28.3034ZM236.291 26.6031C236.755 26.6031 237.158 26.5115 237.499 26.3282C237.84 26.1407 238.102 25.8936 238.285 25.5868C238.473 25.2799 238.566 24.9454 238.566 24.5832V23.4262C238.494 23.4859 238.37 23.5413 238.196 23.5924C238.025 23.6436 237.833 23.6883 237.62 23.7267C237.407 23.765 237.196 23.7991 236.988 23.8289C236.779 23.8588 236.598 23.8843 236.444 23.9057C236.099 23.9525 235.79 24.0292 235.517 24.1358C235.245 24.2423 235.029 24.3914 234.872 24.5832C234.714 24.7707 234.635 25.0136 234.635 25.3119C234.635 25.738 234.791 26.0598 235.102 26.2771C235.413 26.4944 235.809 26.6031 236.291 26.6031ZM250.961 20.8822L248.851 21.1123C248.792 20.8993 248.687 20.699 248.538 20.5115C248.393 20.324 248.197 20.1727 247.95 20.0576C247.703 19.9426 247.4 19.8851 247.042 19.8851C246.561 19.8851 246.156 19.9895 245.828 20.1983C245.504 20.4071 245.344 20.6777 245.348 21.0101C245.344 21.2956 245.449 21.5278 245.662 21.7068C245.879 21.8858 246.237 22.0328 246.735 22.1478L248.41 22.5058C249.339 22.7061 250.029 23.0235 250.481 23.4582C250.937 23.8929 251.167 24.4618 251.172 25.1649C251.167 25.7828 250.986 26.3282 250.628 26.8012C250.275 27.27 249.782 27.6365 249.152 27.9007C248.521 28.1649 247.797 28.297 246.978 28.297C245.777 28.297 244.809 28.0456 244.076 27.5427C243.343 27.0356 242.907 26.3304 242.766 25.427L245.022 25.2096C245.125 25.6528 245.342 25.9873 245.674 26.2132C246.007 26.439 246.439 26.552 246.972 26.552C247.522 26.552 247.963 26.439 248.295 26.2132C248.632 25.9873 248.8 25.7082 248.8 25.3758C248.8 25.0946 248.691 24.8623 248.474 24.6791C248.261 24.4958 247.929 24.3552 247.477 24.2572L245.802 23.9057C244.86 23.7096 244.164 23.3794 243.712 22.9149C243.26 22.4461 243.037 21.8538 243.041 21.1379C243.037 20.5328 243.201 20.0086 243.533 19.5655C243.87 19.118 244.336 18.7728 244.933 18.5299C245.534 18.2828 246.226 18.1592 247.01 18.1592C248.161 18.1592 249.066 18.4042 249.727 18.8943C250.392 19.3843 250.803 20.047 250.961 20.8822ZM257.982 18.287V20.0768H252.338V18.287H257.982ZM253.732 15.9348H256.045V25.1521C256.045 25.4632 256.092 25.7018 256.186 25.868C256.284 26.0299 256.412 26.1407 256.57 26.2004C256.727 26.2601 256.902 26.2899 257.094 26.2899C257.239 26.2899 257.371 26.2792 257.49 26.2579C257.614 26.2366 257.707 26.2174 257.771 26.2004L258.161 28.0093C258.038 28.052 257.861 28.0988 257.631 28.15C257.405 28.2011 257.128 28.2309 256.8 28.2395C256.22 28.2565 255.698 28.1691 255.234 27.9774C254.769 27.7814 254.401 27.4788 254.128 27.0697C253.859 26.6606 253.727 26.1493 253.732 25.5356V15.9348ZM264.159 28.297C263.174 28.297 262.324 28.0924 261.608 27.6833C260.896 27.27 260.349 26.6862 259.965 25.9319C259.582 25.1734 259.39 24.2807 259.39 23.2537C259.39 22.2437 259.582 21.3574 259.965 20.5946C260.353 19.8275 260.894 19.2309 261.589 18.8048C262.284 18.3744 263.1 18.1592 264.037 18.1592C264.642 18.1592 265.213 18.2572 265.75 18.4532C266.291 18.645 266.769 18.9433 267.182 19.3481C267.6 19.753 267.928 20.2686 268.166 20.895C268.405 21.5172 268.524 22.2586 268.524 23.1194V23.8289H260.477V22.2693H266.306C266.302 21.8261 266.206 21.4319 266.019 21.0868C265.831 20.7373 265.569 20.4625 265.232 20.2622C264.9 20.0619 264.512 19.9618 264.069 19.9618C263.596 19.9618 263.181 20.0768 262.823 20.3069C262.465 20.5328 262.186 20.8311 261.985 21.2018C261.789 21.5683 261.689 21.971 261.685 22.4099V23.7714C261.685 24.3424 261.789 24.8325 261.998 25.2416C262.207 25.6464 262.499 25.9575 262.874 26.1748C263.249 26.3879 263.688 26.4944 264.191 26.4944C264.527 26.4944 264.832 26.4476 265.105 26.3538C265.377 26.2558 265.614 26.113 265.814 25.9255C266.014 25.738 266.166 25.5058 266.268 25.2288L268.428 25.4717C268.292 26.0427 268.032 26.5413 267.649 26.9674C267.269 27.3893 266.784 27.7174 266.191 27.9518C265.599 28.1819 264.921 28.297 264.159 28.297ZM270.482 28.1052V18.287H272.725V19.9234H272.828C273.007 19.3566 273.314 18.9199 273.748 18.613C274.187 18.302 274.688 18.1464 275.25 18.1464C275.378 18.1464 275.521 18.1528 275.679 18.1656C275.841 18.1741 275.975 18.189 276.081 18.2103V20.3389C275.983 20.3048 275.828 20.275 275.615 20.2494C275.406 20.2196 275.203 20.2047 275.007 20.2047C274.586 20.2047 274.206 20.2963 273.87 20.4795C273.537 20.6585 273.275 20.9078 273.083 21.2274C272.892 21.547 272.796 21.9156 272.796 22.3332V28.1052H270.482ZM286.986 18.287V20.0768H281.342V18.287H286.986ZM282.735 15.9348H285.049V25.1521C285.049 25.4632 285.096 25.7018 285.19 25.868C285.288 26.0299 285.416 26.1407 285.574 26.2004C285.731 26.2601 285.906 26.2899 286.098 26.2899C286.243 26.2899 286.375 26.2792 286.494 26.2579C286.618 26.2366 286.711 26.2174 286.775 26.2004L287.165 28.0093C287.042 28.052 286.865 28.0988 286.635 28.15C286.409 28.2011 286.132 28.2309 285.804 28.2395C285.224 28.2565 284.702 28.1691 284.238 27.9774C283.773 27.7814 283.404 27.4788 283.132 27.0697C282.863 26.6606 282.731 26.1493 282.735 25.5356V15.9348ZM291.446 22.3524V28.1052H289.132V15.0143H291.395V19.9554H291.51C291.74 19.4014 292.096 18.9646 292.578 18.645C293.063 18.3211 293.681 18.1592 294.431 18.1592C295.113 18.1592 295.708 18.302 296.215 18.5875C296.722 18.873 297.114 19.2906 297.391 19.8403C297.672 20.39 297.813 21.0612 297.813 21.8538V28.1052H295.499V22.2118C295.499 21.5512 295.328 21.0378 294.987 20.6713C294.651 20.3005 294.178 20.1152 293.568 20.1152C293.159 20.1152 292.793 20.2047 292.469 20.3836C292.149 20.5583 291.898 20.8119 291.715 21.1443C291.536 21.4767 291.446 21.8794 291.446 22.3524ZM304.518 28.297C303.534 28.297 302.683 28.0924 301.968 27.6833C301.256 27.27 300.708 26.6862 300.325 25.9319C299.941 25.1734 299.749 24.2807 299.749 23.2537C299.749 22.2437 299.941 21.3574 300.325 20.5946C300.713 19.8275 301.254 19.2309 301.948 18.8048C302.643 18.3744 303.459 18.1592 304.396 18.1592C305.002 18.1592 305.573 18.2572 306.11 18.4532C306.651 18.645 307.128 18.9433 307.541 19.3481C307.959 19.753 308.287 20.2686 308.526 20.895C308.764 21.5172 308.884 22.2586 308.884 23.1194V23.8289H300.836V22.2693H306.666C306.661 21.8261 306.566 21.4319 306.378 21.0868C306.191 20.7373 305.928 20.4625 305.592 20.2622C305.259 20.0619 304.872 19.9618 304.428 19.9618C303.955 19.9618 303.54 20.0768 303.182 20.3069C302.824 20.5328 302.545 20.8311 302.345 21.2018C302.149 21.5683 302.048 21.971 302.044 22.4099V23.7714C302.044 24.3424 302.149 24.8325 302.357 25.2416C302.566 25.6464 302.858 25.9575 303.233 26.1748C303.608 26.3879 304.047 26.4944 304.55 26.4944C304.887 26.4944 305.191 26.4476 305.464 26.3538C305.737 26.2558 305.973 26.113 306.173 25.9255C306.374 25.738 306.525 25.5058 306.627 25.2288L308.788 25.4717C308.651 26.0427 308.392 26.5413 308.008 26.9674C307.629 27.3893 307.143 27.7174 306.551 27.9518C305.958 28.1819 305.281 28.297 304.518 28.297ZM310.841 28.1052V18.287H313.155V28.1052H310.841ZM312.005 16.8936C311.638 16.8936 311.323 16.7721 311.059 16.5292C310.794 16.2821 310.662 15.9859 310.662 15.6407C310.662 15.2913 310.794 14.9951 311.059 14.7522C311.323 14.5051 311.638 14.3815 312.005 14.3815C312.375 14.3815 312.691 14.5051 312.951 14.7522C313.215 14.9951 313.347 15.2913 313.347 15.6407C313.347 15.9859 313.215 16.2821 312.951 16.5292C312.691 16.7721 312.375 16.8936 312.005 16.8936ZM315.535 28.1052V18.287H317.778V19.9234H317.881C318.059 19.3566 318.366 18.9199 318.801 18.613C319.24 18.302 319.741 18.1464 320.303 18.1464C320.431 18.1464 320.574 18.1528 320.731 18.1656C320.893 18.1741 321.028 18.189 321.134 18.2103V20.3389C321.036 20.3048 320.881 20.275 320.667 20.2494C320.459 20.2196 320.256 20.2047 320.06 20.2047C319.638 20.2047 319.259 20.2963 318.922 20.4795C318.59 20.6585 318.328 20.9078 318.136 21.2274C317.944 21.547 317.849 21.9156 317.849 22.3332V28.1052H315.535ZM332.109 18.287V20.0768H326.305V18.287H332.109ZM327.756 28.1052V17.3602C327.756 16.6997 327.893 16.15 328.165 15.711C328.442 15.2721 328.813 14.944 329.278 14.7267C329.742 14.5093 330.258 14.4007 330.824 14.4007C331.225 14.4007 331.581 14.4326 331.892 14.4966C332.203 14.5605 332.433 14.618 332.582 14.6691L332.122 16.4589C332.024 16.4291 331.9 16.3993 331.751 16.3694C331.602 16.3353 331.436 16.3183 331.253 16.3183C330.822 16.3183 330.518 16.4227 330.339 16.6315C330.164 16.836 330.077 17.1301 330.077 17.5136V28.1052H327.756ZM333.921 28.1052V18.287H336.235V28.1052H333.921ZM335.085 16.8936C334.718 16.8936 334.403 16.7721 334.139 16.5292C333.874 16.2821 333.742 15.9859 333.742 15.6407C333.742 15.2913 333.874 14.9951 334.139 14.7522C334.403 14.5051 334.718 14.3815 335.085 14.3815C335.455 14.3815 335.771 14.5051 336.031 14.7522C336.295 14.9951 336.427 15.2913 336.427 15.6407C336.427 15.9859 336.295 16.2821 336.031 16.5292C335.771 16.7721 335.455 16.8936 335.085 16.8936ZM340.929 22.3524V28.1052H338.615V18.287H340.826V19.9554H340.941C341.167 19.4057 341.527 18.9689 342.022 18.645C342.52 18.3211 343.136 18.1592 343.869 18.1592C344.547 18.1592 345.137 18.3041 345.64 18.5939C346.147 18.8836 346.539 19.3034 346.816 19.8531C347.097 20.4028 347.235 21.0697 347.231 21.8538V28.1052H344.917V22.2118C344.917 21.5555 344.747 21.042 344.406 20.6713C344.069 20.3005 343.603 20.1152 343.006 20.1152C342.601 20.1152 342.241 20.2047 341.926 20.3836C341.615 20.5583 341.37 20.8119 341.191 21.1443C341.016 21.4767 340.929 21.8794 340.929 22.3524ZM352.409 28.3034C351.787 28.3034 351.226 28.1926 350.728 27.971C350.233 27.7451 349.841 27.4128 349.551 26.9738C349.266 26.5349 349.123 25.9937 349.123 25.3503C349.123 24.7963 349.225 24.3382 349.43 23.976C349.635 23.6137 349.914 23.324 350.267 23.1066C350.621 22.8893 351.02 22.7253 351.463 22.6145C351.91 22.4994 352.373 22.4163 352.85 22.3652C353.425 22.3055 353.892 22.2522 354.25 22.2054C354.608 22.1542 354.868 22.0775 355.029 21.9753C355.196 21.8687 355.279 21.7047 355.279 21.4831V21.4447C355.279 20.9632 355.136 20.5903 354.85 20.3261C354.565 20.0619 354.154 19.9298 353.617 19.9298C353.05 19.9298 352.6 20.0534 352.268 20.3005C351.94 20.5477 351.718 20.8396 351.603 21.1762L349.443 20.8694C349.613 20.2728 349.895 19.7743 350.287 19.3737C350.679 18.9689 351.158 18.6663 351.725 18.466C352.292 18.2615 352.918 18.1592 353.604 18.1592C354.077 18.1592 354.548 18.2146 355.017 18.3254C355.485 18.4362 355.914 18.6194 356.301 18.8751C356.689 19.1265 357 19.4696 357.235 19.9042C357.473 20.3389 357.593 20.8822 357.593 21.5342V28.1052H355.368V26.7565H355.292C355.151 27.0292 354.953 27.2849 354.697 27.5235C354.446 27.7579 354.128 27.9476 353.745 28.0924C353.365 28.2331 352.92 28.3034 352.409 28.3034ZM353.01 26.6031C353.474 26.6031 353.877 26.5115 354.218 26.3282C354.559 26.1407 354.821 25.8936 355.004 25.5868C355.191 25.2799 355.285 24.9454 355.285 24.5832V23.4262C355.213 23.4859 355.089 23.5413 354.914 23.5924C354.744 23.6436 354.552 23.6883 354.339 23.7267C354.126 23.765 353.915 23.7991 353.706 23.8289C353.498 23.8588 353.316 23.8843 353.163 23.9057C352.818 23.9525 352.509 24.0292 352.236 24.1358C351.963 24.2423 351.748 24.3914 351.591 24.5832C351.433 24.7707 351.354 25.0136 351.354 25.3119C351.354 25.738 351.51 26.0598 351.821 26.2771C352.132 26.4944 352.528 26.6031 353.01 26.6031ZM362.233 22.3524V28.1052H359.919V18.287H362.131V19.9554H362.246C362.472 19.4057 362.832 18.9689 363.326 18.645C363.825 18.3211 364.441 18.1592 365.174 18.1592C365.851 18.1592 366.441 18.3041 366.944 18.5939C367.451 18.8836 367.843 19.3034 368.12 19.8531C368.402 20.4028 368.54 21.0697 368.536 21.8538V28.1052H366.222V22.2118C366.222 21.5555 366.051 21.042 365.711 20.6713C365.374 20.3005 364.907 20.1152 364.311 20.1152C363.906 20.1152 363.546 20.2047 363.23 20.3836C362.919 20.5583 362.674 20.8119 362.495 21.1443C362.321 21.4767 362.233 21.8794 362.233 22.3524ZM375.171 28.297C374.191 28.297 373.349 28.0818 372.646 27.6514C371.947 27.221 371.408 26.6265 371.029 25.868C370.654 25.1052 370.466 24.2274 370.466 23.2345C370.466 22.2373 370.658 21.3574 371.042 20.5946C371.425 19.8275 371.966 19.2309 372.665 18.8048C373.368 18.3744 374.199 18.1592 375.158 18.1592C375.955 18.1592 376.66 18.3062 377.274 18.6003C377.892 18.89 378.384 19.3012 378.75 19.8339C379.117 20.3623 379.326 20.9802 379.377 21.6876H377.165C377.076 21.2146 376.863 20.8204 376.526 20.5051C376.194 20.1855 375.748 20.0257 375.19 20.0257C374.717 20.0257 374.301 20.1535 373.944 20.4092C373.586 20.6606 373.306 21.0228 373.106 21.4958C372.91 21.9689 372.812 22.5356 372.812 23.1961C372.812 23.8652 372.91 24.4405 373.106 24.922C373.302 25.3993 373.577 25.7679 373.931 26.0278C374.289 26.2835 374.708 26.4113 375.19 26.4113C375.531 26.4113 375.836 26.3474 376.104 26.2196C376.377 26.0875 376.605 25.8978 376.788 25.6507C376.971 25.4035 377.097 25.1031 377.165 24.7494H379.377C379.321 25.444 379.117 26.0598 378.763 26.5967C378.409 27.1294 377.928 27.547 377.319 27.8495C376.709 28.1478 375.993 28.297 375.171 28.297ZM385.623 28.297C384.639 28.297 383.789 28.0924 383.073 27.6833C382.361 27.27 381.814 26.6862 381.43 25.9319C381.047 25.1734 380.855 24.2807 380.855 23.2537C380.855 22.2437 381.047 21.3574 381.43 20.5946C381.818 19.8275 382.359 19.2309 383.054 18.8048C383.748 18.3744 384.564 18.1592 385.502 18.1592C386.107 18.1592 386.678 18.2572 387.215 18.4532C387.756 18.645 388.233 18.9433 388.647 19.3481C389.064 19.753 389.393 20.2686 389.631 20.895C389.87 21.5172 389.989 22.2586 389.989 23.1194V23.8289H381.942V22.2693H387.771C387.767 21.8261 387.671 21.4319 387.483 21.0868C387.296 20.7373 387.034 20.4625 386.697 20.2622C386.365 20.0619 385.977 19.9618 385.534 19.9618C385.061 19.9618 384.645 20.0768 384.287 20.3069C383.93 20.5328 383.65 20.8311 383.45 21.2018C383.254 21.5683 383.154 21.971 383.15 22.4099V23.7714C383.15 24.3424 383.254 24.8325 383.463 25.2416C383.672 25.6464 383.964 25.9575 384.339 26.1748C384.714 26.3879 385.153 26.4944 385.655 26.4944C385.992 26.4944 386.297 26.4476 386.569 26.3538C386.842 26.2558 387.079 26.113 387.279 25.9255C387.479 25.738 387.631 25.5058 387.733 25.2288L389.893 25.4717C389.757 26.0427 389.497 26.5413 389.113 26.9674C388.734 27.3893 388.248 27.7174 387.656 27.9518C387.064 28.1819 386.386 28.297 385.623 28.297ZM399.707 20.8822L397.597 21.1123C397.538 20.8993 397.433 20.699 397.284 20.5115C397.139 20.324 396.943 20.1727 396.696 20.0576C396.449 19.9426 396.146 19.8851 395.788 19.8851C395.307 19.8851 394.902 19.9895 394.574 20.1983C394.25 20.4071 394.09 20.6777 394.094 21.0101C394.09 21.2956 394.195 21.5278 394.408 21.7068C394.625 21.8858 394.983 22.0328 395.482 22.1478L397.156 22.5058C398.085 22.7061 398.776 23.0235 399.227 23.4582C399.683 23.8929 399.913 24.4618 399.918 25.1649C399.913 25.7828 399.732 26.3282 399.374 26.8012C399.021 27.27 398.528 27.6365 397.898 27.9007C397.267 28.1649 396.543 28.297 395.724 28.297C394.523 28.297 393.555 28.0456 392.822 27.5427C392.089 27.0356 391.653 26.3304 391.512 25.427L393.768 25.2096C393.871 25.6528 394.088 25.9873 394.42 26.2132C394.753 26.439 395.185 26.552 395.718 26.552C396.268 26.552 396.709 26.439 397.041 26.2132C397.378 25.9873 397.546 25.7082 397.546 25.3758C397.546 25.0946 397.438 24.8623 397.22 24.6791C397.007 24.4958 396.675 24.3552 396.223 24.2572L394.548 23.9057C393.607 23.7096 392.91 23.3794 392.458 22.9149C392.006 22.4461 391.783 21.8538 391.787 21.1379C391.783 20.5328 391.947 20.0086 392.279 19.5655C392.616 19.118 393.082 18.7728 393.679 18.5299C394.28 18.2828 394.972 18.1592 395.756 18.1592C396.907 18.1592 397.813 18.4042 398.473 18.8943C399.138 19.3843 399.549 20.047 399.707 20.8822ZM409.116 28.3034C408.494 28.3034 407.933 28.1926 407.435 27.971C406.94 27.7451 406.548 27.4128 406.259 26.9738C405.973 26.5349 405.83 25.9937 405.83 25.3503C405.83 24.7963 405.933 24.3382 406.137 23.976C406.342 23.6137 406.621 23.324 406.974 23.1066C407.328 22.8893 407.727 22.7253 408.17 22.6145C408.617 22.4994 409.08 22.4163 409.557 22.3652C410.132 22.3055 410.599 22.2522 410.957 22.2054C411.315 22.1542 411.575 22.0775 411.737 21.9753C411.903 21.8687 411.986 21.7047 411.986 21.4831V21.4447C411.986 20.9632 411.843 20.5903 411.558 20.3261C411.272 20.0619 410.861 19.9298 410.324 19.9298C409.757 19.9298 409.308 20.0534 408.975 20.3005C408.647 20.5477 408.425 20.8396 408.31 21.1762L406.15 20.8694C406.32 20.2728 406.602 19.7743 406.994 19.3737C407.386 18.9689 407.865 18.6663 408.432 18.466C408.999 18.2615 409.625 18.1592 410.311 18.1592C410.784 18.1592 411.255 18.2146 411.724 18.3254C412.192 18.4362 412.621 18.6194 413.009 18.8751C413.396 19.1265 413.707 19.4696 413.942 19.9042C414.18 20.3389 414.3 20.8822 414.3 21.5342V28.1052H412.075V26.7565H411.999C411.858 27.0292 411.66 27.2849 411.404 27.5235C411.153 27.7579 410.835 27.9476 410.452 28.0924C410.072 28.2331 409.627 28.3034 409.116 28.3034ZM409.717 26.6031C410.181 26.6031 410.584 26.5115 410.925 26.3282C411.266 26.1407 411.528 25.8936 411.711 25.5868C411.898 25.2799 411.992 24.9454 411.992 24.5832V23.4262C411.92 23.4859 411.796 23.5413 411.621 23.5924C411.451 23.6436 411.259 23.6883 411.046 23.7267C410.833 23.765 410.622 23.7991 410.413 23.8289C410.205 23.8588 410.023 23.8843 409.87 23.9057C409.525 23.9525 409.216 24.0292 408.943 24.1358C408.67 24.2423 408.455 24.3914 408.298 24.5832C408.14 24.7707 408.061 25.0136 408.061 25.3119C408.061 25.738 408.217 26.0598 408.528 26.2771C408.839 26.4944 409.235 26.6031 409.717 26.6031ZM418.94 22.3524V28.1052H416.626V18.287H418.838V19.9554H418.953C419.179 19.4057 419.539 18.9689 420.033 18.645C420.532 18.3211 421.148 18.1592 421.881 18.1592C422.558 18.1592 423.148 18.3041 423.651 18.5939C424.158 18.8836 424.55 19.3034 424.827 19.8531C425.109 20.4028 425.247 21.0697 425.243 21.8538V28.1052H422.929V22.2118C422.929 21.5555 422.759 21.042 422.418 20.6713C422.081 20.3005 421.614 20.1152 421.018 20.1152C420.613 20.1152 420.253 20.2047 419.938 20.3836C419.626 20.5583 419.381 20.8119 419.202 21.1443C419.028 21.4767 418.94 21.8794 418.94 22.3524ZM431.239 28.2778C430.467 28.2778 429.777 28.0797 429.168 27.6833C428.558 27.287 428.077 26.7118 427.723 25.9575C427.369 25.2032 427.192 24.287 427.192 23.2089C427.192 22.118 427.371 21.1976 427.729 20.4476C428.092 19.6933 428.58 19.1244 429.193 18.7409C429.807 18.3531 430.491 18.1592 431.245 18.1592C431.82 18.1592 432.293 18.2572 432.664 18.4532C433.035 18.645 433.329 18.8772 433.546 19.15C433.763 19.4184 433.932 19.672 434.051 19.9106H434.147V15.0143H436.467V28.1052H434.192V26.5583H434.051C433.932 26.797 433.759 27.0505 433.533 27.319C433.308 27.5832 433.009 27.8091 432.638 27.9966C432.268 28.1841 431.801 28.2778 431.239 28.2778ZM431.884 26.3794C432.374 26.3794 432.792 26.2473 433.137 25.9831C433.482 25.7146 433.744 25.3417 433.923 24.8645C434.102 24.3872 434.192 23.8311 434.192 23.1961C434.192 22.5612 434.102 22.0093 433.923 21.5406C433.749 21.0718 433.489 20.7075 433.143 20.4476C432.803 20.1876 432.383 20.0576 431.884 20.0576C431.369 20.0576 430.938 20.1919 430.593 20.4603C430.248 20.7288 429.988 21.0995 429.813 21.5726C429.638 22.0456 429.551 22.5868 429.551 23.1961C429.551 23.8098 429.638 24.3574 429.813 24.8389C429.992 25.3162 430.254 25.6933 430.599 25.9703C430.949 26.243 431.377 26.3794 431.884 26.3794ZM451.158 20.8822L449.048 21.1123C448.989 20.8993 448.884 20.699 448.735 20.5115C448.59 20.324 448.394 20.1727 448.147 20.0576C447.9 19.9426 447.597 19.8851 447.24 19.8851C446.758 19.8851 446.353 19.9895 446.025 20.1983C445.701 20.4071 445.541 20.6777 445.546 21.0101C445.541 21.2956 445.646 21.5278 445.859 21.7068C446.076 21.8858 446.434 22.0328 446.933 22.1478L448.607 22.5058C449.536 22.7061 450.227 23.0235 450.678 23.4582C451.134 23.8929 451.365 24.4618 451.369 25.1649C451.365 25.7828 451.183 26.3282 450.825 26.8012C450.472 27.27 449.98 27.6365 449.349 27.9007C448.718 28.1649 447.994 28.297 447.176 28.297C445.974 28.297 445.007 28.0456 444.274 27.5427C443.541 27.0356 443.104 26.3304 442.963 25.427L445.22 25.2096C445.322 25.6528 445.539 25.9873 445.872 26.2132C446.204 26.439 446.637 26.552 447.169 26.552C447.719 26.552 448.16 26.439 448.492 26.2132C448.829 25.9873 448.997 25.7082 448.997 25.3758C448.997 25.0946 448.889 24.8623 448.671 24.6791C448.458 24.4958 448.126 24.3552 447.674 24.2572L445.999 23.9057C445.058 23.7096 444.361 23.3794 443.909 22.9149C443.458 22.4461 443.234 21.8538 443.238 21.1379C443.234 20.5328 443.398 20.0086 443.73 19.5655C444.067 19.118 444.534 18.7728 445.13 18.5299C445.731 18.2828 446.423 18.1592 447.208 18.1592C448.358 18.1592 449.264 18.4042 449.924 18.8943C450.589 19.3843 451 20.047 451.158 20.8822ZM453.277 28.1052V18.287H455.488V19.9554H455.604C455.808 19.3929 456.147 18.9539 456.62 18.6386C457.093 18.319 457.657 18.1592 458.314 18.1592C458.979 18.1592 459.539 18.3211 459.995 18.645C460.455 18.9646 460.779 19.4014 460.966 19.9554H461.069C461.286 19.4099 461.653 18.9753 462.168 18.6514C462.688 18.3233 463.304 18.1592 464.015 18.1592C464.919 18.1592 465.656 18.4447 466.227 19.0157C466.798 19.5868 467.084 20.4199 467.084 21.515V28.1052H464.763V21.873C464.763 21.2636 464.601 20.8183 464.278 20.537C463.954 20.2515 463.557 20.1088 463.089 20.1088C462.53 20.1088 462.094 20.2835 461.778 20.6329C461.467 20.9781 461.312 21.4277 461.312 21.9816V28.1052H459.042V21.7771C459.042 21.27 458.889 20.8652 458.582 20.5626C458.28 20.2601 457.883 20.1088 457.393 20.1088C457.061 20.1088 456.758 20.194 456.486 20.3645C456.213 20.5307 455.996 20.7672 455.834 21.074C455.672 21.3765 455.591 21.7302 455.591 22.1351V28.1052H453.277ZM472.256 28.3034C471.634 28.3034 471.074 28.1926 470.575 27.971C470.081 27.7451 469.689 27.4128 469.399 26.9738C469.114 26.5349 468.971 25.9937 468.971 25.3503C468.971 24.7963 469.073 24.3382 469.278 23.976C469.482 23.6137 469.761 23.324 470.115 23.1066C470.469 22.8893 470.867 22.7253 471.31 22.6145C471.758 22.4994 472.22 22.4163 472.697 22.3652C473.273 22.3055 473.739 22.2522 474.097 22.2054C474.455 22.1542 474.715 22.0775 474.877 21.9753C475.043 21.8687 475.126 21.7047 475.126 21.4831V21.4447C475.126 20.9632 474.984 20.5903 474.698 20.3261C474.413 20.0619 474.001 19.9298 473.464 19.9298C472.898 19.9298 472.448 20.0534 472.116 20.3005C471.788 20.5477 471.566 20.8396 471.451 21.1762L469.29 20.8694C469.461 20.2728 469.742 19.7743 470.134 19.3737C470.526 18.9689 471.006 18.6663 471.572 18.466C472.139 18.2615 472.766 18.1592 473.452 18.1592C473.925 18.1592 474.396 18.2146 474.864 18.3254C475.333 18.4362 475.761 18.6194 476.149 18.8751C476.537 19.1265 476.848 19.4696 477.082 19.9042C477.321 20.3389 477.44 20.8822 477.44 21.5342V28.1052H475.216V26.7565H475.139C474.999 27.0292 474.8 27.2849 474.545 27.5235C474.293 27.7579 473.976 27.9476 473.592 28.0924C473.213 28.2331 472.768 28.3034 472.256 28.3034ZM472.857 26.6031C473.322 26.6031 473.724 26.5115 474.065 26.3282C474.406 26.1407 474.668 25.8936 474.852 25.5868C475.039 25.2799 475.133 24.9454 475.133 24.5832V23.4262C475.06 23.4859 474.937 23.5413 474.762 23.5924C474.592 23.6436 474.4 23.6883 474.187 23.7267C473.974 23.765 473.763 23.7991 473.554 23.8289C473.345 23.8588 473.164 23.8843 473.011 23.9057C472.665 23.9525 472.357 24.0292 472.084 24.1358C471.811 24.2423 471.596 24.3914 471.438 24.5832C471.281 24.7707 471.202 25.0136 471.202 25.3119C471.202 25.738 471.357 26.0598 471.668 26.2771C471.979 26.4944 472.376 26.6031 472.857 26.6031ZM487.527 20.8822L485.418 21.1123C485.358 20.8993 485.254 20.699 485.104 20.5115C484.96 20.324 484.763 20.1727 484.516 20.0576C484.269 19.9426 483.967 19.8851 483.609 19.8851C483.127 19.8851 482.722 19.9895 482.394 20.1983C482.07 20.4071 481.911 20.6777 481.915 21.0101C481.911 21.2956 482.015 21.5278 482.228 21.7068C482.445 21.8858 482.803 22.0328 483.302 22.1478L484.977 22.5058C485.906 22.7061 486.596 23.0235 487.048 23.4582C487.504 23.8929 487.734 24.4618 487.738 25.1649C487.734 25.7828 487.553 26.3282 487.195 26.8012C486.841 27.27 486.349 27.6365 485.718 27.9007C485.087 28.1649 484.363 28.297 483.545 28.297C482.343 28.297 481.376 28.0456 480.643 27.5427C479.91 27.0356 479.473 26.3304 479.332 25.427L481.589 25.2096C481.691 25.6528 481.908 25.9873 482.241 26.2132C482.573 26.439 483.006 26.552 483.538 26.552C484.088 26.552 484.529 26.439 484.862 26.2132C485.198 25.9873 485.366 25.7082 485.366 25.3758C485.366 25.0946 485.258 24.8623 485.04 24.6791C484.827 24.4958 484.495 24.3552 484.043 24.2572L482.369 23.9057C481.427 23.7096 480.73 23.3794 480.278 22.9149C479.827 22.4461 479.603 21.8538 479.607 21.1379C479.603 20.5328 479.767 20.0086 480.099 19.5655C480.436 19.118 480.903 18.7728 481.499 18.5299C482.1 18.2828 482.793 18.1592 483.577 18.1592C484.727 18.1592 485.633 18.4042 486.293 18.8943C486.958 19.3843 487.369 20.047 487.527 20.8822ZM491.96 22.3524V28.1052H489.646V15.0143H491.909V19.9554H492.024C492.254 19.4014 492.61 18.9646 493.091 18.645C493.577 18.3211 494.195 18.1592 494.945 18.1592C495.627 18.1592 496.221 18.302 496.728 18.5875C497.235 18.873 497.627 19.2906 497.904 19.8403C498.186 20.39 498.326 21.0612 498.326 21.8538V28.1052H496.012V22.2118C496.012 21.5512 495.842 21.0378 495.501 20.6713C495.164 20.3005 494.691 20.1152 494.082 20.1152C493.673 20.1152 493.306 20.2047 492.983 20.3836C492.663 20.5583 492.412 20.8119 492.228 21.1443C492.049 21.4767 491.96 21.8794 491.96 22.3524ZM509.496 28.297C508.512 28.297 507.662 28.0924 506.946 27.6833C506.234 27.27 505.687 26.6862 505.303 25.9319C504.92 25.1734 504.728 24.2807 504.728 23.2537C504.728 22.2437 504.92 21.3574 505.303 20.5946C505.691 19.8275 506.232 19.2309 506.927 18.8048C507.621 18.3744 508.438 18.1592 509.375 18.1592C509.98 18.1592 510.551 18.2572 511.088 18.4532C511.629 18.645 512.107 18.9433 512.52 19.3481C512.938 19.753 513.266 20.2686 513.504 20.895C513.743 21.5172 513.862 22.2586 513.862 23.1194V23.8289H505.815V22.2693H511.644C511.64 21.8261 511.544 21.4319 511.357 21.0868C511.169 20.7373 510.907 20.4625 510.57 20.2622C510.238 20.0619 509.85 19.9618 509.407 19.9618C508.934 19.9618 508.518 20.0768 508.161 20.3069C507.803 20.5328 507.523 20.8311 507.323 21.2018C507.127 21.5683 507.027 21.971 507.023 22.4099V23.7714C507.023 24.3424 507.127 24.8325 507.336 25.2416C507.545 25.6464 507.837 25.9575 508.212 26.1748C508.587 26.3879 509.026 26.4944 509.528 26.4944C509.865 26.4944 510.17 26.4476 510.442 26.3538C510.715 26.2558 510.952 26.113 511.152 25.9255C511.352 25.738 511.504 25.5058 511.606 25.2288L513.766 25.4717C513.63 26.0427 513.37 26.5413 512.987 26.9674C512.607 27.3893 512.121 27.7174 511.529 27.9518C510.937 28.1819 510.259 28.297 509.496 28.297ZM524.308 18.287L520.812 28.1052H518.255L514.759 18.287H517.226L519.482 25.5804H519.585L521.847 18.287H524.308ZM529.922 28.297C528.938 28.297 528.088 28.0924 527.372 27.6833C526.66 27.27 526.113 26.6862 525.729 25.9319C525.346 25.1734 525.154 24.2807 525.154 23.2537C525.154 22.2437 525.346 21.3574 525.729 20.5946C526.117 19.8275 526.658 19.2309 527.353 18.8048C528.047 18.3744 528.863 18.1592 529.801 18.1592C530.406 18.1592 530.977 18.2572 531.514 18.4532C532.055 18.645 532.532 18.9433 532.946 19.3481C533.363 19.753 533.691 20.2686 533.93 20.895C534.169 21.5172 534.288 22.2586 534.288 23.1194V23.8289H526.24V22.2693H532.07C532.066 21.8261 531.97 21.4319 531.782 21.0868C531.595 20.7373 531.333 20.4625 530.996 20.2622C530.664 20.0619 530.276 19.9618 529.833 19.9618C529.36 19.9618 528.944 20.0768 528.586 20.3069C528.228 20.5328 527.949 20.8311 527.749 21.2018C527.553 21.5683 527.453 21.971 527.449 22.4099V23.7714C527.449 24.3424 527.553 24.8325 527.762 25.2416C527.971 25.6464 528.262 25.9575 528.637 26.1748C529.012 26.3879 529.451 26.4944 529.954 26.4944C530.291 26.4944 530.596 26.4476 530.868 26.3538C531.141 26.2558 531.377 26.113 531.578 25.9255C531.778 25.738 531.929 25.5058 532.032 25.2288L534.192 25.4717C534.056 26.0427 533.796 26.5413 533.412 26.9674C533.033 27.3893 532.547 27.7174 531.955 27.9518C531.363 28.1819 530.685 28.297 529.922 28.297ZM536.246 28.1052V18.287H538.489V19.9234H538.591C538.77 19.3566 539.077 18.9199 539.512 18.613C539.951 18.302 540.452 18.1464 541.014 18.1464C541.142 18.1464 541.285 18.1528 541.442 18.1656C541.604 18.1741 541.738 18.189 541.845 18.2103V20.3389C541.747 20.3048 541.591 20.275 541.378 20.2494C541.17 20.2196 540.967 20.2047 540.771 20.2047C540.349 20.2047 539.97 20.2963 539.633 20.4795C539.301 20.6585 539.039 20.9078 538.847 21.2274C538.655 21.547 538.559 21.9156 538.559 22.3332V28.1052H536.246ZM545.119 31.787C544.804 31.787 544.512 31.7615 544.244 31.7103C543.979 31.6635 543.768 31.6081 543.611 31.5441L544.148 29.7416C544.484 29.8396 544.785 29.8865 545.049 29.8822C545.313 29.878 545.545 29.7949 545.746 29.6329C545.95 29.4753 546.123 29.211 546.263 28.8403L546.462 28.3098L542.901 18.287H545.356L547.619 25.7018H547.721L549.99 18.287H552.451L548.52 29.2941C548.337 29.814 548.094 30.2593 547.791 30.6301C547.489 31.0051 547.118 31.2906 546.679 31.4866C546.244 31.6869 545.724 31.787 545.119 31.787ZM562.787 31.9916C561.956 31.9916 561.242 31.8787 560.646 31.6528C560.049 31.4312 559.57 31.1329 559.207 30.7579C558.845 30.3829 558.594 29.9674 558.453 29.5115L560.537 29.0065C560.631 29.1983 560.767 29.3879 560.946 29.5754C561.125 29.7672 561.366 29.9248 561.668 30.0484C561.975 30.1762 562.361 30.2402 562.825 30.2402C563.482 30.2402 564.025 30.0804 564.455 29.7608C564.886 29.4454 565.101 28.9255 565.101 28.2011V26.341H564.986C564.866 26.5797 564.692 26.8247 564.462 27.0761C564.236 27.3275 563.935 27.5385 563.56 27.7089C563.19 27.8794 562.723 27.9646 562.161 27.9646C561.406 27.9646 560.722 27.7878 560.109 27.4341C559.499 27.0761 559.013 26.5434 558.651 25.836C558.293 25.1244 558.114 24.2338 558.114 23.1642C558.114 22.086 558.293 21.1762 558.651 20.4348C559.013 19.689 559.501 19.1244 560.115 18.7409C560.729 18.3531 561.413 18.1592 562.167 18.1592C562.742 18.1592 563.215 18.2572 563.586 18.4532C563.961 18.645 564.259 18.8772 564.481 19.15C564.702 19.4184 564.871 19.672 564.986 19.9106H565.114V18.287H567.396V28.265C567.396 29.1045 567.195 29.7991 566.795 30.3488C566.394 30.8985 565.847 31.3098 565.152 31.5825C564.457 31.8552 563.669 31.9916 562.787 31.9916ZM562.806 26.1493C563.296 26.1493 563.714 26.0299 564.059 25.7913C564.404 25.5527 564.666 25.2096 564.845 24.7622C565.024 24.3147 565.114 23.7778 565.114 23.1514C565.114 22.5335 565.024 21.9923 564.845 21.5278C564.67 21.0633 564.411 20.7032 564.065 20.4476C563.724 20.1876 563.305 20.0576 562.806 20.0576C562.29 20.0576 561.86 20.1919 561.515 20.4603C561.17 20.7288 560.91 21.0974 560.735 21.5662C560.56 22.0307 560.473 22.5591 560.473 23.1514C560.473 23.7522 560.56 24.2785 560.735 24.7302C560.914 25.1777 561.176 25.5271 561.521 25.7785C561.871 26.0257 562.299 26.1493 562.806 26.1493ZM574.05 28.297C573.091 28.297 572.26 28.086 571.557 27.6642C570.854 27.2423 570.308 26.6521 569.92 25.8936C569.537 25.1351 569.345 24.2487 569.345 23.2345C569.345 22.2203 569.537 21.3318 569.92 20.569C570.308 19.8062 570.854 19.2139 571.557 18.792C572.26 18.3701 573.091 18.1592 574.05 18.1592C575.009 18.1592 575.839 18.3701 576.543 18.792C577.246 19.2139 577.789 19.8062 578.173 20.569C578.56 21.3318 578.754 22.2203 578.754 23.2345C578.754 24.2487 578.56 25.1351 578.173 25.8936C577.789 26.6521 577.246 27.2423 576.543 27.6642C575.839 28.086 575.009 28.297 574.05 28.297ZM574.062 26.4433C574.582 26.4433 575.017 26.3005 575.366 26.015C575.716 25.7253 575.976 25.3375 576.146 24.8517C576.321 24.3659 576.408 23.8247 576.408 23.2281C576.408 22.6272 576.321 22.0839 576.146 21.5981C575.976 21.1081 575.716 20.7182 575.366 20.4284C575.017 20.1386 574.582 19.9937 574.062 19.9937C573.53 19.9937 573.087 20.1386 572.733 20.4284C572.384 20.7182 572.121 21.1081 571.947 21.5981C571.776 22.0839 571.691 22.6272 571.691 23.2281C571.691 23.8247 571.776 24.3659 571.947 24.8517C572.121 25.3375 572.384 25.7253 572.733 26.015C573.087 26.3005 573.53 26.4433 574.062 26.4433ZM583.544 28.3034C582.921 28.3034 582.361 28.1926 581.862 27.971C581.368 27.7451 580.976 27.4128 580.686 26.9738C580.401 26.5349 580.258 25.9937 580.258 25.3503C580.258 24.7963 580.36 24.3382 580.565 23.976C580.769 23.6137 581.048 23.324 581.402 23.1066C581.756 22.8893 582.154 22.7253 582.597 22.6145C583.045 22.4994 583.507 22.4163 583.985 22.3652C584.56 22.3055 585.026 22.2522 585.384 22.2054C585.742 22.1542 586.002 22.0775 586.164 21.9753C586.33 21.8687 586.414 21.7047 586.414 21.4831V21.4447C586.414 20.9632 586.271 20.5903 585.985 20.3261C585.7 20.0619 585.289 19.9298 584.752 19.9298C584.185 19.9298 583.735 20.0534 583.403 20.3005C583.075 20.5477 582.853 20.8396 582.738 21.1762L580.578 20.8694C580.748 20.2728 581.029 19.7743 581.421 19.3737C581.813 18.9689 582.293 18.6663 582.86 18.466C583.426 18.2615 584.053 18.1592 584.739 18.1592C585.212 18.1592 585.683 18.2146 586.151 18.3254C586.62 18.4362 587.048 18.6194 587.436 18.8751C587.824 19.1265 588.135 19.4696 588.369 19.9042C588.608 20.3389 588.727 20.8822 588.727 21.5342V28.1052H586.503V26.7565H586.426C586.286 27.0292 586.088 27.2849 585.832 27.5235C585.58 27.7579 585.263 27.9476 584.879 28.0924C584.5 28.2331 584.055 28.3034 583.544 28.3034ZM584.144 26.6031C584.609 26.6031 585.012 26.5115 585.352 26.3282C585.693 26.1407 585.955 25.8936 586.139 25.5868C586.326 25.2799 586.42 24.9454 586.42 24.5832V23.4262C586.347 23.4859 586.224 23.5413 586.049 23.5924C585.879 23.6436 585.687 23.6883 585.474 23.7267C585.261 23.765 585.05 23.7991 584.841 23.8289C584.632 23.8588 584.451 23.8843 584.298 23.9057C583.953 23.9525 583.644 24.0292 583.371 24.1358C583.098 24.2423 582.883 24.3914 582.725 24.5832C582.568 24.7707 582.489 25.0136 582.489 25.3119C582.489 25.738 582.644 26.0598 582.955 26.2771C583.267 26.4944 583.663 26.6031 584.144 26.6031ZM593.368 15.0143V28.1052H591.054V15.0143H593.368ZM599.023 30.2052H629.023V0.205224H599.023V30.2052Z" fill="#23082A"/>
</svg>
